# MagicaVoxel @ Ephtracy

# group
o 

# material
mtllib smithDown.mtl
usemtl palette

# normals
vn -1 0 0
vn 1 0 0
vn 0 0 1
vn 0 0 -1
vn 0 -1 0
vn 0 1 0

# texcoords
vt 0.587891 0.5
vt 0.591797 0.5
vt 0.677734 0.5
vt 0.744141 0.5
vt 0.779297 0.5

# verts
v 0.6 1.7 -0.6
v 0.6 1.7 -1.1
v 0.6 1.8 -0.6
v 0.6 1.8 -1.1
v 0.7 1 -1
v 0.7 1 -1.1
v 0.7 1.1 -1
v 0.7 1.1 -1.1
v 0.7 1.2 -1
v 0.7 1.2 -1.1
v 0.7 1.3 -0.9
v 0.7 1.3 -1
v 0.7 1.3 -1.1
v 0.7 1.3 -1.2
v 0.7 1.4 -1
v 0.7 1.4 -1.2
v 0.7 1.5 -0.9
v 0.7 1.5 -1.2
v 0.7 1.7 -0.9
v 0.7 1.7 -1.1
v 0.7 1.8 -0.8
v 0.7 1.8 -1.1
v 0.7 1.8 -1.2
v 0.7 2.3 -0.8
v 0.7 2.3 -1.2
v 0.9 1.9 -1.2
v 0.9 1.9 -1.3
v 0.9 2.3 -0.8
v 0.9 2.3 -1.2
v 0.9 2.4 -0.8
v 0.9 2.4 -1.3
v 1.2 1 -1
v 1.2 1 -1.1
v 1.2 1.1 -1
v 1.2 1.1 -1.1
v 1.2 1.2 -1
v 1.2 1.2 -1.1
v 1.2 1.3 -1
v 1.2 1.3 -1.1
v 1.3 1.7 -0.6
v 1.3 1.7 -0.9
v 1.3 1.8 -0.6
v 1.3 1.8 -0.8
v 1.3 1.8 -0.9
v 0.7 1.7 -0.6
v 0.7 1.7 -0.9
v 0.7 1.8 -0.6
v 0.7 1.8 -0.8
v 0.7 1.8 -0.9
v 0.8 1 -1
v 0.8 1 -1.1
v 0.8 1.1 -1
v 0.8 1.1 -1.1
v 0.8 1.2 -1
v 0.8 1.2 -1.1
v 0.8 1.3 -1
v 0.8 1.3 -1.1
v 1.1 1.9 -1.2
v 1.1 1.9 -1.3
v 1.1 2.3 -0.8
v 1.1 2.3 -1.2
v 1.1 2.4 -0.8
v 1.1 2.4 -1.3
v 1.3 1 -1
v 1.3 1 -1.1
v 1.3 1.1 -1
v 1.3 1.1 -1.1
v 1.3 1.2 -1
v 1.3 1.2 -1.1
v 1.3 1.3 -0.9
v 1.3 1.3 -1
v 1.3 1.3 -1.1
v 1.3 1.3 -1.2
v 1.3 1.4 -0.9
v 1.3 1.4 -1.2
v 1.3 1.5 -0.9
v 1.3 1.5 -1.2
v 1.3 1.7 -0.9
v 1.3 1.7 -1.1
v 1.3 1.8 -0.8
v 1.3 1.8 -1.1
v 1.3 1.8 -1.2
v 1.3 2.3 -0.8
v 1.3 2.3 -1.2
v 1.4 1.7 -0.6
v 1.4 1.7 -1.1
v 1.4 1.8 -0.6
v 1.4 1.8 -1.1
v 0.6 1.7 -0.6
v 0.6 1.8 -0.6
v 0.7 1.7 -0.6
v 0.7 1.8 -0.6
v 1.3 1.7 -0.6
v 1.3 1.8 -0.6
v 1.4 1.7 -0.6
v 1.4 1.8 -0.6
v 0.7 1.8 -0.8
v 0.7 2.3 -0.8
v 0.8 2.1 -0.8
v 0.8 2.2 -0.8
v 0.9 2.1 -0.8
v 0.9 2.2 -0.8
v 0.9 2.3 -0.8
v 0.9 2.4 -0.8
v 1.1 2.1 -0.8
v 1.1 2.2 -0.8
v 1.1 2.3 -0.8
v 1.1 2.4 -0.8
v 1.2 2.1 -0.8
v 1.2 2.2 -0.8
v 1.3 1.8 -0.8
v 1.3 2.3 -0.8
v 0.7 1.3 -0.9
v 0.7 1.5 -0.9
v 0.7 1.7 -0.9
v 0.7 1.8 -0.9
v 0.8 1.3 -0.9
v 0.8 1.4 -0.9
v 0.9 1.5 -0.9
v 0.9 1.6 -0.9
v 1 1.5 -0.9
v 1 1.6 -0.9
v 1 1.7 -0.9
v 1.1 1.6 -0.9
v 1.1 1.7 -0.9
v 1.1 1.8 -0.9
v 1.2 1.7 -0.9
v 1.2 1.8 -0.9
v 1.3 1.3 -0.9
v 1.3 1.4 -0.9
v 1.3 1.5 -0.9
v 1.3 1.7 -0.9
v 1.3 1.8 -0.9
v 0.7 1 -1
v 0.7 1.1 -1
v 0.7 1.2 -1
v 0.7 1.3 -1
v 0.8 1 -1
v 0.8 1.1 -1
v 0.8 1.2 -1
v 0.8 1.3 -1
v 1.2 1 -1
v 1.2 1.1 -1
v 1.2 1.2 -1
v 1.2 1.3 -1
v 1.3 1 -1
v 1.3 1.1 -1
v 1.3 1.2 -1
v 1.3 1.3 -1
v 0.6 1.7 -1.1
v 0.6 1.8 -1.1
v 0.7 1 -1.1
v 0.7 1.1 -1.1
v 0.7 1.2 -1.1
v 0.7 1.3 -1.1
v 0.7 1.7 -1.1
v 0.7 1.8 -1.1
v 0.8 1 -1.1
v 0.8 1.1 -1.1
v 0.8 1.2 -1.1
v 0.8 1.3 -1.1
v 1.2 1 -1.1
v 1.2 1.1 -1.1
v 1.2 1.2 -1.1
v 1.2 1.3 -1.1
v 1.3 1 -1.1
v 1.3 1.1 -1.1
v 1.3 1.2 -1.1
v 1.3 1.3 -1.1
v 1.3 1.7 -1.1
v 1.3 1.8 -1.1
v 1.4 1.7 -1.1
v 1.4 1.8 -1.1
v 0.7 1.3 -1.2
v 0.7 1.4 -1.2
v 0.7 1.5 -1.2
v 0.7 1.8 -1.2
v 0.7 2.3 -1.2
v 0.9 1.9 -1.2
v 0.9 2.3 -1.2
v 1.1 1.9 -1.2
v 1.1 2.3 -1.2
v 1.3 1.3 -1.2
v 1.3 1.4 -1.2
v 1.3 1.5 -1.2
v 1.3 1.8 -1.2
v 1.3 2.3 -1.2
v 0.9 1.9 -1.3
v 0.9 2.4 -1.3
v 1.1 1.9 -1.3
v 1.1 2.4 -1.3
v 0.7 1 -1
v 0.8 1 -1
v 1.2 1 -1
v 1.3 1 -1
v 0.7 1 -1.1
v 0.8 1 -1.1
v 1.2 1 -1.1
v 1.3 1 -1.1
v 0.7 1.3 -0.9
v 0.8 1.3 -0.9
v 1.3 1.3 -0.9
v 0.7 1.3 -1
v 0.8 1.3 -1
v 1.2 1.3 -1
v 1.3 1.3 -1
v 0.7 1.3 -1.1
v 0.8 1.3 -1.1
v 1.2 1.3 -1.1
v 1.3 1.3 -1.1
v 0.7 1.3 -1.2
v 1.3 1.3 -1.2
v 0.6 1.7 -0.6
v 0.7 1.7 -0.6
v 1.3 1.7 -0.6
v 1.4 1.7 -0.6
v 0.7 1.7 -0.9
v 1.3 1.7 -0.9
v 0.6 1.7 -1.1
v 0.7 1.7 -1.1
v 1.3 1.7 -1.1
v 1.4 1.7 -1.1
v 0.7 1.8 -0.8
v 1.3 1.8 -0.8
v 0.7 1.8 -0.9
v 1.1 1.8 -0.9
v 1.2 1.8 -0.9
v 1.3 1.8 -0.9
v 0.9 1.9 -1.2
v 1.1 1.9 -1.2
v 0.9 1.9 -1.3
v 1.1 1.9 -1.3
v 0.6 1.8 -0.6
v 0.7 1.8 -0.6
v 1.3 1.8 -0.6
v 1.4 1.8 -0.6
v 0.7 1.8 -0.8
v 1.3 1.8 -0.8
v 0.6 1.8 -1.1
v 0.7 1.8 -1.1
v 1.3 1.8 -1.1
v 1.4 1.8 -1.1
v 0.7 2.3 -0.8
v 0.9 2.3 -0.8
v 1.1 2.3 -0.8
v 1.3 2.3 -0.8
v 0.7 2.3 -1.2
v 0.9 2.3 -1.2
v 1.1 2.3 -1.2
v 1.3 2.3 -1.2
v 0.9 2.4 -0.8
v 1.1 2.4 -0.8
v 0.9 2.4 -1.3
v 1.1 2.4 -1.3

# faces
f 3/4/1 2/4/1 1/4/1
f 4/4/1 2/4/1 3/4/1
f 7/5/1 6/5/1 5/5/1
f 8/5/1 6/5/1 7/5/1
f 9/4/1 8/4/1 7/4/1
f 10/4/1 8/4/1 9/4/1
f 12/5/1 10/5/1 9/5/1
f 13/5/1 10/5/1 12/5/1
f 15/5/1 13/5/1 12/5/1
f 15/5/1 14/5/1 13/5/1
f 15/2/1 12/2/1 11/2/1
f 16/5/1 14/5/1 15/5/1
f 17/2/1 15/2/1 11/2/1
f 17/2/1 16/2/1 15/2/1
f 18/2/1 16/2/1 17/2/1
f 19/5/1 18/5/1 17/5/1
f 20/5/1 18/5/1 19/5/1
f 22/5/1 18/5/1 20/5/1
f 23/5/1 18/5/1 22/5/1
f 24/4/1 22/4/1 21/4/1
f 24/4/1 23/4/1 22/4/1
f 25/4/1 23/4/1 24/4/1
f 29/1/1 27/1/1 26/1/1
f 30/1/1 29/1/1 28/1/1
f 31/1/1 27/1/1 29/1/1
f 31/1/1 29/1/1 30/1/1
f 34/5/1 33/5/1 32/5/1
f 35/5/1 33/5/1 34/5/1
f 36/4/1 35/4/1 34/4/1
f 37/4/1 35/4/1 36/4/1
f 38/5/1 37/5/1 36/5/1
f 39/5/1 37/5/1 38/5/1
f 42/4/1 41/4/1 40/4/1
f 43/4/1 41/4/1 42/4/1
f 44/4/1 41/4/1 43/4/1
f 45/4/2 46/4/2 47/4/2
f 47/4/2 46/4/2 48/4/2
f 48/4/2 46/4/2 49/4/2
f 50/5/2 51/5/2 52/5/2
f 52/5/2 51/5/2 53/5/2
f 52/4/2 53/4/2 54/4/2
f 54/4/2 53/4/2 55/4/2
f 54/5/2 55/5/2 56/5/2
f 56/5/2 55/5/2 57/5/2
f 58/1/2 59/1/2 61/1/2
f 60/1/2 61/1/2 62/1/2
f 61/1/2 59/1/2 63/1/2
f 62/1/2 61/1/2 63/1/2
f 64/5/2 65/5/2 66/5/2
f 66/5/2 65/5/2 67/5/2
f 66/4/2 67/4/2 68/4/2
f 68/4/2 67/4/2 69/4/2
f 68/5/2 69/5/2 71/5/2
f 71/5/2 69/5/2 72/5/2
f 71/5/2 72/5/2 74/5/2
f 72/5/2 73/5/2 74/5/2
f 70/5/2 71/5/2 74/5/2
f 74/5/2 73/5/2 75/5/2
f 74/2/2 75/2/2 76/2/2
f 76/2/2 75/2/2 77/2/2
f 76/5/2 77/5/2 78/5/2
f 78/5/2 77/5/2 79/5/2
f 79/5/2 77/5/2 81/5/2
f 81/5/2 77/5/2 82/5/2
f 80/4/2 81/4/2 83/4/2
f 81/4/2 82/4/2 83/4/2
f 83/4/2 82/4/2 84/4/2
f 85/4/2 86/4/2 87/4/2
f 87/4/2 86/4/2 88/4/2
f 91/4/3 90/4/3 89/4/3
f 92/4/3 90/4/3 91/4/3
f 95/4/3 94/4/3 93/4/3
f 96/4/3 94/4/3 95/4/3
f 99/4/3 98/4/3 97/4/3
f 100/4/3 98/4/3 99/4/3
f 101/4/3 99/4/3 97/4/3
f 101/1/3 100/1/3 99/1/3
f 102/4/3 98/4/3 100/4/3
f 102/1/3 100/1/3 101/1/3
f 103/4/3 98/4/3 102/4/3
f 105/4/3 101/4/3 97/4/3
f 105/4/3 102/4/3 101/4/3
f 105/4/3 103/4/3 102/4/3
f 106/4/3 103/4/3 105/4/3
f 107/1/3 104/1/3 103/1/3
f 107/4/3 103/4/3 106/4/3
f 108/1/3 104/1/3 107/1/3
f 109/1/3 106/1/3 105/1/3
f 109/4/3 105/4/3 97/4/3
f 110/4/3 107/4/3 106/4/3
f 110/1/3 106/1/3 109/1/3
f 111/4/3 109/4/3 97/4/3
f 111/4/3 110/4/3 109/4/3
f 112/4/3 107/4/3 110/4/3
f 112/4/3 110/4/3 111/4/3
f 117/2/3 114/2/3 113/2/3
f 118/2/3 114/2/3 117/2/3
f 119/5/3 116/5/3 115/5/3
f 119/2/3 114/2/3 118/2/3
f 119/5/3 115/5/3 114/5/3
f 120/5/3 116/5/3 119/5/3
f 121/2/3 119/2/3 118/2/3
f 121/2/3 120/2/3 119/2/3
f 122/5/3 116/5/3 120/5/3
f 122/2/3 120/2/3 121/2/3
f 123/5/3 116/5/3 122/5/3
f 124/5/3 122/5/3 121/5/3
f 124/2/3 123/2/3 122/2/3
f 125/5/3 116/5/3 123/5/3
f 125/2/3 123/2/3 124/2/3
f 126/5/3 116/5/3 125/5/3
f 127/5/3 125/5/3 124/5/3
f 127/2/3 126/2/3 125/2/3
f 128/2/3 126/2/3 127/2/3
f 129/5/3 118/5/3 117/5/3
f 130/2/3 121/2/3 118/2/3
f 130/5/3 118/5/3 129/5/3
f 131/5/3 124/5/3 121/5/3
f 131/2/3 121/2/3 130/2/3
f 131/5/3 127/5/3 124/5/3
f 131/5/3 128/5/3 127/5/3
f 132/5/3 128/5/3 131/5/3
f 133/5/3 128/5/3 132/5/3
f 138/5/3 135/5/3 134/5/3
f 139/4/3 136/4/3 135/4/3
f 139/5/3 135/5/3 138/5/3
f 140/5/3 137/5/3 136/5/3
f 140/4/3 136/4/3 139/4/3
f 141/5/3 137/5/3 140/5/3
f 146/5/3 143/5/3 142/5/3
f 147/4/3 144/4/3 143/4/3
f 147/5/3 143/5/3 146/5/3
f 148/5/3 145/5/3 144/5/3
f 148/4/3 144/4/3 147/4/3
f 149/5/3 145/5/3 148/5/3
f 150/4/4 151/4/4 156/4/4
f 156/4/4 151/4/4 157/4/4
f 152/5/4 153/5/4 158/5/4
f 153/4/4 154/4/4 159/4/4
f 158/5/4 153/5/4 159/5/4
f 154/5/4 155/5/4 160/5/4
f 159/4/4 154/4/4 160/4/4
f 160/5/4 155/5/4 161/5/4
f 162/5/4 163/5/4 166/5/4
f 163/4/4 164/4/4 167/4/4
f 166/5/4 163/5/4 167/5/4
f 164/5/4 165/5/4 168/5/4
f 167/4/4 164/4/4 168/4/4
f 168/5/4 165/5/4 169/5/4
f 170/4/4 171/4/4 172/4/4
f 172/4/4 171/4/4 173/4/4
f 177/4/4 178/4/4 179/4/4
f 179/4/4 178/4/4 180/4/4
f 177/4/4 179/4/4 181/4/4
f 174/5/4 175/5/4 183/5/4
f 175/2/4 176/2/4 184/2/4
f 183/5/4 175/5/4 184/5/4
f 176/5/4 177/5/4 185/5/4
f 184/2/4 176/2/4 185/2/4
f 181/4/4 182/4/4 186/4/4
f 185/5/4 177/5/4 186/5/4
f 177/4/4 181/4/4 186/4/4
f 186/4/4 182/4/4 187/4/4
f 188/1/4 189/1/4 190/1/4
f 190/1/4 189/1/4 191/1/4
f 196/5/5 193/5/5 192/5/5
f 197/5/5 193/5/5 196/5/5
f 198/5/5 195/5/5 194/5/5
f 199/5/5 195/5/5 198/5/5
f 203/2/5 201/2/5 200/2/5
f 204/5/5 202/5/5 201/5/5
f 204/2/5 201/2/5 203/2/5
f 205/5/5 202/5/5 204/5/5
f 206/5/5 202/5/5 205/5/5
f 208/5/5 205/5/5 204/5/5
f 209/5/5 205/5/5 208/5/5
f 211/5/5 208/5/5 207/5/5
f 211/5/5 210/5/5 209/5/5
f 211/5/5 209/5/5 208/5/5
f 212/5/5 210/5/5 211/5/5
f 217/4/5 214/4/5 213/4/5
f 218/4/5 216/4/5 215/4/5
f 219/4/5 217/4/5 213/4/5
f 220/4/5 217/4/5 219/4/5
f 221/4/5 216/4/5 218/4/5
f 222/4/5 216/4/5 221/4/5
f 225/4/5 224/4/5 223/4/5
f 226/4/5 224/4/5 225/4/5
f 227/4/5 224/4/5 226/4/5
f 228/4/5 224/4/5 227/4/5
f 231/1/5 230/1/5 229/1/5
f 232/1/5 230/1/5 231/1/5
f 233/4/6 234/4/6 237/4/6
f 235/4/6 236/4/6 238/4/6
f 233/4/6 237/4/6 239/4/6
f 239/4/6 237/4/6 240/4/6
f 238/4/6 236/4/6 241/4/6
f 241/4/6 236/4/6 242/4/6
f 243/4/6 244/4/6 247/4/6
f 247/4/6 244/4/6 248/4/6
f 245/4/6 246/4/6 249/4/6
f 249/4/6 246/4/6 250/4/6
f 251/1/6 252/1/6 253/1/6
f 253/1/6 252/1/6 254/1/6
