# MagicaVoxel @ Ephtracy

# group
o 

# material
mtllib Lava.mtl
usemtl palette

# normals
vn -1 0 0
vn 1 0 0
vn 0 0 1
vn 0 0 -1
vn 0 -1 0
vn 0 1 0

# texcoords
vt 0.912109 0.5
vt 0.919922 0.5

# verts
v 0 2 0
v 0 2 -8
v 0 2.1 0
v 0 2.1 -8
v 0.7 2.1 -5.9
v 0.7 2.1 -7.1
v 0.7 2.2 -5.9
v 0.7 2.2 -7.1
v 1.5 2.1 -1.7
v 1.5 2.1 -3.1
v 1.5 2.2 -1.7
v 1.5 2.2 -3.1
v 2.5 2.1 -3.7
v 2.5 2.1 -4.4
v 2.5 2.2 -3.7
v 2.5 2.2 -4.4
v 3.6 2.1 -6.2
v 3.6 2.1 -6.9
v 3.6 2.2 -6.2
v 3.6 2.2 -6.9
v 4.5 2.1 -1.7
v 4.5 2.1 -2.4
v 4.5 2.2 -1.7
v 4.5 2.2 -2.4
v 6.3 2.1 -3.7
v 6.3 2.1 -4.4
v 6.3 2.1 -6.7
v 6.3 2.1 -7.3
v 6.3 2.2 -3.7
v 6.3 2.2 -4.4
v 6.3 2.2 -6.7
v 6.3 2.2 -7.3
v 7 2.1 -0.3
v 7 2.1 -1
v 7 2.2 -0.3
v 7 2.2 -1
v 1.1 2.1 -5.9
v 1.1 2.1 -7.1
v 1.1 2.2 -5.9
v 1.1 2.2 -7.1
v 2.2 2.1 -1.7
v 2.2 2.1 -3.1
v 2.2 2.2 -1.7
v 2.2 2.2 -3.1
v 2.9 2.1 -3.7
v 2.9 2.1 -4.4
v 2.9 2.2 -3.7
v 2.9 2.2 -4.4
v 4.2 2.1 -6.2
v 4.2 2.1 -6.9
v 4.2 2.2 -6.2
v 4.2 2.2 -6.9
v 5.1 2.1 -1.7
v 5.1 2.1 -2.4
v 5.1 2.2 -1.7
v 5.1 2.2 -2.4
v 6.9 2.1 -3.7
v 6.9 2.1 -4.4
v 6.9 2.2 -3.7
v 6.9 2.2 -4.4
v 7 2.1 -6.7
v 7 2.1 -7.3
v 7 2.2 -6.7
v 7 2.2 -7.3
v 7.6 2.1 -0.3
v 7.6 2.1 -1
v 7.6 2.2 -0.3
v 7.6 2.2 -1
v 8 2 0
v 8 2 -8
v 8 2.1 0
v 8 2.1 -8
v 0 2 0
v 0 2.1 0
v 8 2 0
v 8 2.1 0
v 7 2.1 -0.3
v 7 2.2 -0.3
v 7.6 2.1 -0.3
v 7.6 2.2 -0.3
v 1.5 2.1 -1.7
v 1.5 2.2 -1.7
v 2.2 2.1 -1.7
v 2.2 2.2 -1.7
v 4.5 2.1 -1.7
v 4.5 2.2 -1.7
v 5.1 2.1 -1.7
v 5.1 2.2 -1.7
v 2.5 2.1 -3.7
v 2.5 2.2 -3.7
v 2.9 2.1 -3.7
v 2.9 2.2 -3.7
v 6.3 2.1 -3.7
v 6.3 2.2 -3.7
v 6.9 2.1 -3.7
v 6.9 2.2 -3.7
v 0.7 2.1 -5.9
v 0.7 2.2 -5.9
v 1.1 2.1 -5.9
v 1.1 2.2 -5.9
v 3.6 2.1 -6.2
v 3.6 2.2 -6.2
v 4.2 2.1 -6.2
v 4.2 2.2 -6.2
v 6.3 2.1 -6.7
v 6.3 2.2 -6.7
v 7 2.1 -6.7
v 7 2.2 -6.7
v 7 2.1 -1
v 7 2.2 -1
v 7.6 2.1 -1
v 7.6 2.2 -1
v 4.5 2.1 -2.4
v 4.5 2.2 -2.4
v 5.1 2.1 -2.4
v 5.1 2.2 -2.4
v 1.5 2.1 -3.1
v 1.5 2.2 -3.1
v 2.2 2.1 -3.1
v 2.2 2.2 -3.1
v 2.5 2.1 -4.4
v 2.5 2.2 -4.4
v 2.9 2.1 -4.4
v 2.9 2.2 -4.4
v 6.3 2.1 -4.4
v 6.3 2.2 -4.4
v 6.9 2.1 -4.4
v 6.9 2.2 -4.4
v 3.6 2.1 -6.9
v 3.6 2.2 -6.9
v 4.2 2.1 -6.9
v 4.2 2.2 -6.9
v 0.7 2.1 -7.1
v 0.7 2.2 -7.1
v 1.1 2.1 -7.1
v 1.1 2.2 -7.1
v 6.3 2.1 -7.3
v 6.3 2.2 -7.3
v 7 2.1 -7.3
v 7 2.2 -7.3
v 0 2 -8
v 0 2.1 -8
v 8 2 -8
v 8 2.1 -8
v 0 2 0
v 8 2 0
v 7 2 -0.3
v 7.6 2 -0.3
v 7 2 -1
v 7.6 2 -1
v 1.5 2 -1.7
v 2.2 2 -1.7
v 4.5 2 -1.7
v 5.1 2 -1.7
v 4.5 2 -2.4
v 5.1 2 -2.4
v 1.5 2 -3.1
v 2.2 2 -3.1
v 2.5 2 -3.7
v 2.9 2 -3.7
v 6.3 2 -3.7
v 6.9 2 -3.7
v 2.5 2 -4.4
v 2.9 2 -4.4
v 6.3 2 -4.4
v 6.9 2 -4.4
v 0.7 2 -5.9
v 1.1 2 -5.9
v 3.6 2 -6.2
v 4.2 2 -6.2
v 6.3 2 -6.7
v 7 2 -6.7
v 3.6 2 -6.9
v 4.2 2 -6.9
v 0.7 2 -7.1
v 1.1 2 -7.1
v 6.3 2 -7.3
v 7 2 -7.3
v 0 2 -8
v 8 2 -8
v 0 2.1 0
v 8 2.1 0
v 7 2.1 -0.3
v 7.6 2.1 -0.3
v 7 2.1 -1
v 7.6 2.1 -1
v 1.5 2.1 -1.7
v 2.2 2.1 -1.7
v 4.5 2.1 -1.7
v 5.1 2.1 -1.7
v 4.5 2.1 -2.4
v 5.1 2.1 -2.4
v 1.5 2.1 -3.1
v 2.2 2.1 -3.1
v 2.5 2.1 -3.7
v 2.9 2.1 -3.7
v 6.3 2.1 -3.7
v 6.9 2.1 -3.7
v 2.5 2.1 -4.4
v 2.9 2.1 -4.4
v 6.3 2.1 -4.4
v 6.9 2.1 -4.4
v 0.7 2.1 -5.9
v 1.1 2.1 -5.9
v 3.6 2.1 -6.2
v 4.2 2.1 -6.2
v 6.3 2.1 -6.7
v 7 2.1 -6.7
v 3.6 2.1 -6.9
v 4.2 2.1 -6.9
v 0.7 2.1 -7.1
v 1.1 2.1 -7.1
v 6.3 2.1 -7.3
v 7 2.1 -7.3
v 0 2.1 -8
v 8 2.1 -8
v 7 2.2 -0.3
v 7.6 2.2 -0.3
v 7 2.2 -1
v 7.6 2.2 -1
v 1.5 2.2 -1.7
v 2.2 2.2 -1.7
v 4.5 2.2 -1.7
v 5.1 2.2 -1.7
v 4.5 2.2 -2.4
v 5.1 2.2 -2.4
v 1.5 2.2 -3.1
v 2.2 2.2 -3.1
v 2.5 2.2 -3.7
v 2.9 2.2 -3.7
v 6.3 2.2 -3.7
v 6.9 2.2 -3.7
v 2.5 2.2 -4.4
v 2.9 2.2 -4.4
v 6.3 2.2 -4.4
v 6.9 2.2 -4.4
v 0.7 2.2 -5.9
v 1.1 2.2 -5.9
v 3.6 2.2 -6.2
v 4.2 2.2 -6.2
v 6.3 2.2 -6.7
v 7 2.2 -6.7
v 3.6 2.2 -6.9
v 4.2 2.2 -6.9
v 0.7 2.2 -7.1
v 1.1 2.2 -7.1
v 6.3 2.2 -7.3
v 7 2.2 -7.3

# faces
f 3/1/1 2/1/1 1/1/1
f 4/1/1 2/1/1 3/1/1
f 7/2/1 6/2/1 5/2/1
f 8/2/1 6/2/1 7/2/1
f 11/2/1 10/2/1 9/2/1
f 12/2/1 10/2/1 11/2/1
f 15/2/1 14/2/1 13/2/1
f 16/2/1 14/2/1 15/2/1
f 19/2/1 18/2/1 17/2/1
f 20/2/1 18/2/1 19/2/1
f 23/2/1 22/2/1 21/2/1
f 24/2/1 22/2/1 23/2/1
f 29/2/1 26/2/1 25/2/1
f 30/2/1 26/2/1 29/2/1
f 31/2/1 28/2/1 27/2/1
f 32/2/1 28/2/1 31/2/1
f 35/2/1 34/2/1 33/2/1
f 36/2/1 34/2/1 35/2/1
f 37/2/2 38/2/2 39/2/2
f 39/2/2 38/2/2 40/2/2
f 41/2/2 42/2/2 43/2/2
f 43/2/2 42/2/2 44/2/2
f 45/2/2 46/2/2 47/2/2
f 47/2/2 46/2/2 48/2/2
f 49/2/2 50/2/2 51/2/2
f 51/2/2 50/2/2 52/2/2
f 53/2/2 54/2/2 55/2/2
f 55/2/2 54/2/2 56/2/2
f 57/2/2 58/2/2 59/2/2
f 59/2/2 58/2/2 60/2/2
f 61/2/2 62/2/2 63/2/2
f 63/2/2 62/2/2 64/2/2
f 65/2/2 66/2/2 67/2/2
f 67/2/2 66/2/2 68/2/2
f 69/1/2 70/1/2 71/1/2
f 71/1/2 70/1/2 72/1/2
f 75/1/3 74/1/3 73/1/3
f 76/1/3 74/1/3 75/1/3
f 79/2/3 78/2/3 77/2/3
f 80/2/3 78/2/3 79/2/3
f 83/2/3 82/2/3 81/2/3
f 84/2/3 82/2/3 83/2/3
f 87/2/3 86/2/3 85/2/3
f 88/2/3 86/2/3 87/2/3
f 91/2/3 90/2/3 89/2/3
f 92/2/3 90/2/3 91/2/3
f 95/2/3 94/2/3 93/2/3
f 96/2/3 94/2/3 95/2/3
f 99/2/3 98/2/3 97/2/3
f 100/2/3 98/2/3 99/2/3
f 103/2/3 102/2/3 101/2/3
f 104/2/3 102/2/3 103/2/3
f 107/2/3 106/2/3 105/2/3
f 108/2/3 106/2/3 107/2/3
f 109/2/4 110/2/4 111/2/4
f 111/2/4 110/2/4 112/2/4
f 113/2/4 114/2/4 115/2/4
f 115/2/4 114/2/4 116/2/4
f 117/2/4 118/2/4 119/2/4
f 119/2/4 118/2/4 120/2/4
f 121/2/4 122/2/4 123/2/4
f 123/2/4 122/2/4 124/2/4
f 125/2/4 126/2/4 127/2/4
f 127/2/4 126/2/4 128/2/4
f 129/2/4 130/2/4 131/2/4
f 131/2/4 130/2/4 132/2/4
f 133/2/4 134/2/4 135/2/4
f 135/2/4 134/2/4 136/2/4
f 137/2/4 138/2/4 139/2/4
f 139/2/4 138/2/4 140/2/4
f 141/1/4 142/1/4 143/1/4
f 143/1/4 142/1/4 144/1/4
f 147/1/5 146/1/5 145/1/5
f 148/1/5 146/1/5 147/1/5
f 149/1/5 147/1/5 145/1/5
f 149/2/5 148/2/5 147/2/5
f 150/1/5 146/1/5 148/1/5
f 150/2/5 148/2/5 149/2/5
f 151/1/5 149/1/5 145/1/5
f 151/1/5 150/1/5 149/1/5
f 152/1/5 150/1/5 151/1/5
f 153/1/5 150/1/5 152/1/5
f 154/1/5 150/1/5 153/1/5
f 155/1/5 153/1/5 152/1/5
f 155/2/5 154/2/5 153/2/5
f 156/1/5 150/1/5 154/1/5
f 156/2/5 154/2/5 155/2/5
f 157/1/5 151/1/5 145/1/5
f 157/2/5 152/2/5 151/2/5
f 158/1/5 156/1/5 155/1/5
f 158/2/5 152/2/5 157/2/5
f 158/1/5 155/1/5 152/1/5
f 159/1/5 158/1/5 157/1/5
f 159/1/5 156/1/5 158/1/5
f 160/1/5 156/1/5 159/1/5
f 161/1/5 150/1/5 156/1/5
f 161/1/5 156/1/5 160/1/5
f 162/1/5 150/1/5 161/1/5
f 163/2/5 160/2/5 159/2/5
f 163/1/5 159/1/5 157/1/5
f 164/1/5 161/1/5 160/1/5
f 164/2/5 160/2/5 163/2/5
f 165/2/5 162/2/5 161/2/5
f 165/1/5 161/1/5 164/1/5
f 166/1/5 150/1/5 162/1/5
f 166/2/5 162/2/5 165/2/5
f 167/1/5 165/1/5 164/1/5
f 167/1/5 157/1/5 145/1/5
f 167/1/5 166/1/5 165/1/5
f 167/1/5 163/1/5 157/1/5
f 167/1/5 164/1/5 163/1/5
f 168/1/5 166/1/5 167/1/5
f 169/1/5 166/1/5 168/1/5
f 170/1/5 166/1/5 169/1/5
f 171/1/5 166/1/5 170/1/5
f 172/1/5 150/1/5 166/1/5
f 172/1/5 166/1/5 171/1/5
f 173/1/5 169/1/5 168/1/5
f 173/2/5 170/2/5 169/2/5
f 174/1/5 171/1/5 170/1/5
f 174/2/5 170/2/5 173/2/5
f 175/1/5 167/1/5 145/1/5
f 175/2/5 168/2/5 167/2/5
f 176/1/5 173/1/5 168/1/5
f 176/2/5 168/2/5 175/2/5
f 176/1/5 174/1/5 173/1/5
f 177/1/5 171/1/5 174/1/5
f 177/1/5 174/1/5 176/1/5
f 177/1/5 176/1/5 175/1/5
f 177/2/5 172/2/5 171/2/5
f 178/1/5 150/1/5 172/1/5
f 178/2/5 172/2/5 177/2/5
f 179/1/5 175/1/5 145/1/5
f 179/1/5 177/1/5 175/1/5
f 179/1/5 178/1/5 177/1/5
f 180/1/5 146/1/5 150/1/5
f 180/1/5 178/1/5 179/1/5
f 180/1/5 150/1/5 178/1/5
f 181/1/6 182/1/6 183/1/6
f 183/1/6 182/1/6 184/1/6
f 181/1/6 183/1/6 185/1/6
f 184/1/6 182/1/6 186/1/6
f 181/1/6 185/1/6 187/1/6
f 185/1/6 186/1/6 187/1/6
f 187/1/6 186/1/6 188/1/6
f 188/1/6 186/1/6 189/1/6
f 189/1/6 186/1/6 190/1/6
f 188/1/6 189/1/6 191/1/6
f 190/1/6 186/1/6 192/1/6
f 181/1/6 187/1/6 193/1/6
f 191/1/6 192/1/6 194/1/6
f 188/1/6 191/1/6 194/1/6
f 194/1/6 192/1/6 195/1/6
f 193/1/6 194/1/6 195/1/6
f 195/1/6 192/1/6 196/1/6
f 192/1/6 186/1/6 197/1/6
f 196/1/6 192/1/6 197/1/6
f 197/1/6 186/1/6 198/1/6
f 193/1/6 195/1/6 199/1/6
f 196/1/6 197/1/6 200/1/6
f 200/1/6 197/1/6 201/1/6
f 198/1/6 186/1/6 202/1/6
f 181/1/6 193/1/6 203/1/6
f 201/1/6 202/1/6 203/1/6
f 200/1/6 201/1/6 203/1/6
f 193/1/6 199/1/6 203/1/6
f 199/1/6 200/1/6 203/1/6
f 203/1/6 202/1/6 204/1/6
f 204/1/6 202/1/6 205/1/6
f 205/1/6 202/1/6 206/1/6
f 206/1/6 202/1/6 207/1/6
f 202/1/6 186/1/6 208/1/6
f 207/1/6 202/1/6 208/1/6
f 204/1/6 205/1/6 209/1/6
f 206/1/6 207/1/6 210/1/6
f 181/1/6 203/1/6 211/1/6
f 204/1/6 209/1/6 212/1/6
f 209/1/6 210/1/6 212/1/6
f 210/1/6 207/1/6 213/1/6
f 211/1/6 212/1/6 213/1/6
f 212/1/6 210/1/6 213/1/6
f 208/1/6 186/1/6 214/1/6
f 181/1/6 211/1/6 215/1/6
f 213/1/6 214/1/6 215/1/6
f 211/1/6 213/1/6 215/1/6
f 186/1/6 182/1/6 216/1/6
f 215/1/6 214/1/6 216/1/6
f 214/1/6 186/1/6 216/1/6
f 217/2/6 218/2/6 219/2/6
f 219/2/6 218/2/6 220/2/6
f 223/2/6 224/2/6 225/2/6
f 225/2/6 224/2/6 226/2/6
f 221/2/6 222/2/6 227/2/6
f 227/2/6 222/2/6 228/2/6
f 229/2/6 230/2/6 233/2/6
f 233/2/6 230/2/6 234/2/6
f 231/2/6 232/2/6 235/2/6
f 235/2/6 232/2/6 236/2/6
f 239/2/6 240/2/6 243/2/6
f 243/2/6 240/2/6 244/2/6
f 237/2/6 238/2/6 245/2/6
f 245/2/6 238/2/6 246/2/6
f 241/2/6 242/2/6 247/2/6
f 247/2/6 242/2/6 248/2/6
