# MagicaVoxel @ Ephtracy

# group
o 

# material
mtllib ModSmith-0.mtl
usemtl palette

# normals
vn -1 0 0
vn 1 0 0
vn 0 0 1
vn 0 0 -1
vn 0 -1 0
vn 0 1 0

# texcoords
vt 0.587891 0.5
vt 0.744141 0.5

# verts
v 0.8 1 -0.1
v 0.8 1 -0.2
v 0.8 1.2 0.2
v 0.8 1.2 -0.1
v 0.8 1.3 0.2
v 0.8 1.3 -0.2
v 1 1.3 0.2
v 1 1.3 -0.2
v 1 1.4 0.2
v 1 1.4 -0.2
v 1.2 1.3 0.2
v 1.2 1.3 -0.2
v 1.2 1.4 0.2
v 1.2 1.4 -0.2
v 1.4 1 -0.1
v 1.4 1 -0.2
v 1.4 1.2 0.2
v 1.4 1.2 -0.1
v 1.4 1.3 0.2
v 1.4 1.3 -0.2
v 0.8 1.2 0.2
v 0.8 1.3 0.2
v 1 1.3 0.2
v 1 1.4 0.2
v 1.2 1.3 0.2
v 1.2 1.4 0.2
v 1.4 1.2 0.2
v 1.4 1.3 0.2
v 0.8 1 -0.1
v 0.8 1.2 -0.1
v 1.4 1 -0.1
v 1.4 1.2 -0.1
v 0.8 1 -0.2
v 0.8 1.3 -0.2
v 1 1.3 -0.2
v 1 1.4 -0.2
v 1.2 1.3 -0.2
v 1.2 1.4 -0.2
v 1.4 1 -0.2
v 1.4 1.3 -0.2
v 0.8 1 -0.1
v 1.4 1 -0.1
v 0.8 1 -0.2
v 1.4 1 -0.2
v 0.8 1.2 0.2
v 1.4 1.2 0.2
v 0.8 1.2 -0.1
v 1.4 1.2 -0.1
v 0.8 1.3 0.2
v 1 1.3 0.2
v 1.2 1.3 0.2
v 1.4 1.3 0.2
v 0.8 1.3 -0.2
v 1 1.3 -0.2
v 1.2 1.3 -0.2
v 1.4 1.3 -0.2
v 1 1.4 0.2
v 1.2 1.4 0.2
v 1 1.4 -0.2
v 1.2 1.4 -0.2

# faces
f 4/2/1 2/2/1 1/2/1
f 5/2/1 4/2/1 3/2/1
f 6/2/1 2/2/1 4/2/1
f 6/2/1 4/2/1 5/2/1
f 9/1/1 8/1/1 7/1/1
f 10/1/1 8/1/1 9/1/1
f 11/1/2 12/1/2 13/1/2
f 13/1/2 12/1/2 14/1/2
f 15/2/2 16/2/2 18/2/2
f 17/2/2 18/2/2 19/2/2
f 18/2/2 16/2/2 20/2/2
f 19/2/2 18/2/2 20/2/2
f 23/2/3 22/2/3 21/2/3
f 25/2/3 23/2/3 21/2/3
f 25/1/3 24/1/3 23/1/3
f 26/1/3 24/1/3 25/1/3
f 27/2/3 25/2/3 21/2/3
f 28/2/3 25/2/3 27/2/3
f 31/2/3 30/2/3 29/2/3
f 32/2/3 30/2/3 31/2/3
f 33/2/4 34/2/4 35/2/4
f 33/2/4 35/2/4 37/2/4
f 35/1/4 36/1/4 37/1/4
f 37/1/4 36/1/4 38/1/4
f 33/2/4 37/2/4 39/2/4
f 39/2/4 37/2/4 40/2/4
f 43/2/5 42/2/5 41/2/5
f 44/2/5 42/2/5 43/2/5
f 47/2/5 46/2/5 45/2/5
f 48/2/5 46/2/5 47/2/5
f 49/2/6 50/2/6 53/2/6
f 53/2/6 50/2/6 54/2/6
f 51/2/6 52/2/6 55/2/6
f 55/2/6 52/2/6 56/2/6
f 57/1/6 58/1/6 59/1/6
f 59/1/6 58/1/6 60/1/6
