# MagicaVoxel @ Ephtracy

# group
o 

# material
mtllib ModSmith-1.mtl
usemtl palette

# normals
vn -1 0 0
vn 1 0 0
vn 0 0 1
vn 0 0 -1
vn 0 -1 0
vn 0 1 0

# texcoords
vt 0.740234 0.5
vt 0.744141 0.5
vt 0.962891 0.5

# verts
v 0.6 1 -0.1
v 0.6 1 -0.2
v 0.6 1.2 0.2
v 0.6 1.2 -0.1
v 0.6 1.3 0.3
v 0.6 1.3 0.2
v 0.6 1.3 -0.2
v 0.6 1.4 0.3
v 0.6 1.4 0.2
v 0.6 1.5 0.2
v 0.6 1.5 -0.2
v 0.7 1.3 0.4
v 0.7 1.3 0.3
v 0.7 1.4 0.4
v 0.7 1.4 0.3
v 1.1 1.3 0.4
v 1.1 1.3 0.3
v 1.1 1.4 0.4
v 1.1 1.4 0.3
v 1.2 1 -0.1
v 1.2 1 -0.2
v 1.2 1.2 0.2
v 1.2 1.2 -0.1
v 1.2 1.3 0.3
v 1.2 1.3 0.2
v 1.2 1.3 -0.2
v 1.2 1.4 0.3
v 1.2 1.4 0.2
v 1.2 1.5 0.2
v 1.2 1.5 -0.2
v 0.7 1.3 0.4
v 0.7 1.4 0.4
v 1.1 1.3 0.4
v 1.1 1.4 0.4
v 0.6 1.3 0.3
v 0.6 1.4 0.3
v 0.7 1.3 0.3
v 0.7 1.4 0.3
v 1.1 1.3 0.3
v 1.1 1.4 0.3
v 1.2 1.3 0.3
v 1.2 1.4 0.3
v 0.6 1.2 0.2
v 0.6 1.3 0.2
v 0.6 1.4 0.2
v 0.6 1.5 0.2
v 1.2 1.2 0.2
v 1.2 1.3 0.2
v 1.2 1.4 0.2
v 1.2 1.5 0.2
v 0.6 1 -0.1
v 0.6 1.2 -0.1
v 1.2 1 -0.1
v 1.2 1.2 -0.1
v 0.6 1 -0.2
v 0.6 1.3 -0.2
v 0.6 1.5 -0.2
v 1.2 1 -0.2
v 1.2 1.3 -0.2
v 1.2 1.5 -0.2
v 0.6 1 -0.1
v 1.2 1 -0.1
v 0.6 1 -0.2
v 1.2 1 -0.2
v 0.6 1.2 0.2
v 1.2 1.2 0.2
v 0.6 1.2 -0.1
v 1.2 1.2 -0.1
v 0.7 1.3 0.4
v 1.1 1.3 0.4
v 0.6 1.3 0.3
v 0.7 1.3 0.3
v 1.1 1.3 0.3
v 1.2 1.3 0.3
v 0.6 1.3 0.2
v 1.2 1.3 0.2
v 0.7 1.4 0.4
v 1.1 1.4 0.4
v 0.6 1.4 0.3
v 0.7 1.4 0.3
v 1.1 1.4 0.3
v 1.2 1.4 0.3
v 0.6 1.4 0.2
v 1.2 1.4 0.2
v 0.6 1.5 0.2
v 1.2 1.5 0.2
v 0.6 1.5 -0.2
v 1.2 1.5 -0.2

# faces
f 4/2/1 2/2/1 1/2/1
f 6/2/1 4/2/1 3/2/1
f 7/2/1 2/2/1 4/2/1
f 7/2/1 4/2/1 6/2/1
f 8/3/1 6/3/1 5/3/1
f 8/3/1 7/3/1 6/3/1
f 9/3/1 7/3/1 8/3/1
f 10/3/1 7/3/1 9/3/1
f 11/3/1 7/3/1 10/3/1
f 14/3/1 13/3/1 12/3/1
f 15/3/1 13/3/1 14/3/1
f 16/3/2 17/3/2 18/3/2
f 18/3/2 17/3/2 19/3/2
f 20/2/2 21/2/2 23/2/2
f 22/2/2 23/2/2 25/2/2
f 23/2/2 21/2/2 26/2/2
f 25/2/2 23/2/2 26/2/2
f 24/3/2 25/3/2 27/3/2
f 25/3/2 26/3/2 27/3/2
f 27/3/2 26/3/2 28/3/2
f 28/3/2 26/3/2 29/3/2
f 29/3/2 26/3/2 30/3/2
f 33/3/3 32/3/3 31/3/3
f 34/3/3 32/3/3 33/3/3
f 37/3/3 36/3/3 35/3/3
f 38/3/3 36/3/3 37/3/3
f 41/3/3 40/3/3 39/3/3
f 42/3/3 40/3/3 41/3/3
f 47/2/3 44/2/3 43/2/3
f 48/2/3 44/2/3 47/2/3
f 49/3/3 46/3/3 45/3/3
f 50/3/3 46/3/3 49/3/3
f 53/2/3 52/2/3 51/2/3
f 54/2/3 52/2/3 53/2/3
f 55/2/4 56/2/4 58/2/4
f 56/3/4 57/3/4 59/3/4
f 58/2/4 56/2/4 59/2/4
f 59/3/4 57/3/4 60/3/4
f 63/2/5 62/2/5 61/2/5
f 64/2/5 62/2/5 63/2/5
f 67/2/5 66/2/5 65/2/5
f 68/2/5 66/2/5 67/2/5
f 72/3/5 70/3/5 69/3/5
f 73/3/5 70/3/5 72/3/5
f 75/3/5 72/3/5 71/3/5
f 75/3/5 74/3/5 73/3/5
f 75/3/5 73/3/5 72/3/5
f 76/3/5 74/3/5 75/3/5
f 77/3/6 78/3/6 80/3/6
f 80/3/6 78/3/6 81/3/6
f 79/3/6 80/3/6 83/3/6
f 81/3/6 82/3/6 83/3/6
f 80/3/6 81/3/6 83/3/6
f 83/3/6 82/3/6 84/3/6
f 85/3/6 86/3/6 87/3/6
f 87/3/6 86/3/6 88/3/6
