# MagicaVoxel @ Ephtracy

# group
o 

# material
mtllib ModSmith-4.mtl
usemtl palette

# normals
vn -1 0 0
vn 1 0 0
vn 0 0 1
vn 0 0 -1
vn 0 -1 0
vn 0 1 0

# texcoords
vt 0.587891 0.5
vt 0.744141 0.5

# verts
v -0.4 0.7 0.4
v -0.4 0.7 -0.1
v -0.4 0.8 0.4
v -0.4 0.8 -0.1
v -0.3 0.1 0
v -0.3 0.1 -0.1
v -0.3 0.2 0
v -0.3 0.2 -0.1
v -0.3 0.8 0.2
v -0.3 0.8 -0.1
v -0.3 0.8 -0.2
v -0.3 1.3 0.2
v -0.3 1.3 -0.2
v -0.1 0.9 -0.2
v -0.1 0.9 -0.3
v -0.1 1.3 0.2
v -0.1 1.3 -0.2
v -0.1 1.4 0.2
v -0.1 1.4 -0.3
v 0.2 0.1 0
v 0.2 0.1 -0.1
v 0.2 0.2 0
v 0.2 0.2 -0.1
v 0.2 0.8 0.1
v 0.2 0.8 -0.1
v 0.2 1.1 0.1
v 0.2 1.2 0.1
v 0.2 1.2 -0.1
v 0.3 0.7 0.4
v 0.3 0.7 -0.1
v 0.3 0.8 0.4
v 0.3 0.8 0.2
v 0.3 0.8 -0.1
v -0.3 0.7 0.4
v -0.3 0.7 -0.1
v -0.3 0.8 0.4
v -0.3 0.8 0.2
v -0.3 0.8 -0.1
v -0.2 0.1 0
v -0.2 0.1 -0.1
v -0.2 0.2 0
v -0.2 0.2 -0.1
v -0.2 0.8 0.1
v -0.2 0.8 -0.1
v -0.2 1.1 0.1
v -0.2 1.2 0.1
v -0.2 1.2 -0.1
v 0.1 0.9 -0.2
v 0.1 0.9 -0.3
v 0.1 1.3 0.2
v 0.1 1.3 -0.2
v 0.1 1.4 0.2
v 0.1 1.4 -0.3
v 0.3 0.1 0
v 0.3 0.1 -0.1
v 0.3 0.2 0
v 0.3 0.2 -0.1
v 0.3 0.8 0.2
v 0.3 0.8 -0.1
v 0.3 0.8 -0.2
v 0.3 1.3 0.2
v 0.3 1.3 -0.2
v 0.4 0.7 0.4
v 0.4 0.7 -0.1
v 0.4 0.8 0.4
v 0.4 0.8 -0.1
v -0.4 0.7 0.4
v -0.4 0.8 0.4
v -0.3 0.7 0.4
v -0.3 0.8 0.4
v 0.3 0.7 0.4
v 0.3 0.8 0.4
v 0.4 0.7 0.4
v 0.4 0.8 0.4
v -0.3 0.8 0.2
v -0.3 1.3 0.2
v -0.2 1.1 0.2
v -0.2 1.2 0.2
v -0.1 1.1 0.2
v -0.1 1.2 0.2
v -0.1 1.3 0.2
v -0.1 1.4 0.2
v 0.1 1.1 0.2
v 0.1 1.2 0.2
v 0.1 1.3 0.2
v 0.1 1.4 0.2
v 0.2 1.1 0.2
v 0.2 1.2 0.2
v 0.3 0.8 0.2
v 0.3 1.3 0.2
v -0.3 0.1 0
v -0.3 0.2 0
v -0.2 0.1 0
v -0.2 0.2 0
v 0.2 0.1 0
v 0.2 0.2 0
v 0.3 0.1 0
v 0.3 0.2 0
v -0.2 0.8 -0.1
v -0.2 1.2 -0.1
v 0.2 0.8 -0.1
v 0.2 1.2 -0.1
v -0.2 0.8 0.1
v -0.2 1.1 0.1
v -0.2 1.2 0.1
v -0.1 1.1 0.1
v -0.1 1.2 0.1
v 0.1 1.1 0.1
v 0.1 1.2 0.1
v 0.2 0.8 0.1
v 0.2 1.1 0.1
v 0.2 1.2 0.1
v -0.4 0.7 -0.1
v -0.4 0.8 -0.1
v -0.3 0.1 -0.1
v -0.3 0.2 -0.1
v -0.3 0.7 -0.1
v -0.3 0.8 -0.1
v -0.2 0.1 -0.1
v -0.2 0.2 -0.1
v 0.2 0.1 -0.1
v 0.2 0.2 -0.1
v 0.3 0.1 -0.1
v 0.3 0.2 -0.1
v 0.3 0.7 -0.1
v 0.3 0.8 -0.1
v 0.4 0.7 -0.1
v 0.4 0.8 -0.1
v -0.3 0.8 -0.2
v -0.3 1.3 -0.2
v -0.1 0.9 -0.2
v -0.1 1.3 -0.2
v 0.1 0.9 -0.2
v 0.1 1.3 -0.2
v 0.3 0.8 -0.2
v 0.3 1.3 -0.2
v -0.1 0.9 -0.3
v -0.1 1.4 -0.3
v 0.1 0.9 -0.3
v 0.1 1.4 -0.3
v -0.3 0.1 0
v -0.2 0.1 0
v 0.2 0.1 0
v 0.3 0.1 0
v -0.3 0.1 -0.1
v -0.2 0.1 -0.1
v 0.2 0.1 -0.1
v 0.3 0.1 -0.1
v -0.4 0.7 0.4
v -0.3 0.7 0.4
v 0.3 0.7 0.4
v 0.4 0.7 0.4
v -0.4 0.7 -0.1
v -0.3 0.7 -0.1
v 0.3 0.7 -0.1
v 0.4 0.7 -0.1
v -0.3 0.8 0.2
v 0.3 0.8 0.2
v -0.2 0.8 0.1
v 0.2 0.8 0.1
v -0.3 0.8 -0.1
v -0.2 0.8 -0.1
v 0.2 0.8 -0.1
v 0.3 0.8 -0.1
v -0.3 0.8 -0.2
v 0.3 0.8 -0.2
v -0.1 0.9 -0.2
v 0.1 0.9 -0.2
v -0.1 0.9 -0.3
v 0.1 0.9 -0.3
v -0.2 1.2 0.1
v -0.1 1.2 0.1
v 0.1 1.2 0.1
v 0.2 1.2 0.1
v -0.2 1.2 -0.1
v 0.2 1.2 -0.1
v -0.3 0.2 0
v -0.2 0.2 0
v 0.2 0.2 0
v 0.3 0.2 0
v -0.3 0.2 -0.1
v -0.2 0.2 -0.1
v 0.2 0.2 -0.1
v 0.3 0.2 -0.1
v -0.4 0.8 0.4
v -0.3 0.8 0.4
v 0.3 0.8 0.4
v 0.4 0.8 0.4
v -0.3 0.8 0.2
v 0.3 0.8 0.2
v -0.4 0.8 -0.1
v -0.3 0.8 -0.1
v 0.3 0.8 -0.1
v 0.4 0.8 -0.1
v -0.3 1.3 0.2
v -0.1 1.3 0.2
v 0.1 1.3 0.2
v 0.3 1.3 0.2
v -0.3 1.3 -0.2
v -0.1 1.3 -0.2
v 0.1 1.3 -0.2
v 0.3 1.3 -0.2
v -0.1 1.4 0.2
v 0.1 1.4 0.2
v -0.1 1.4 -0.3
v 0.1 1.4 -0.3

# faces
f 3/2/1 2/2/1 1/2/1
f 4/2/1 2/2/1 3/2/1
f 7/2/1 6/2/1 5/2/1
f 8/2/1 6/2/1 7/2/1
f 12/2/1 10/2/1 9/2/1
f 12/2/1 11/2/1 10/2/1
f 13/2/1 11/2/1 12/2/1
f 17/1/1 15/1/1 14/1/1
f 18/1/1 17/1/1 16/1/1
f 19/1/1 15/1/1 17/1/1
f 19/1/1 17/1/1 18/1/1
f 22/2/1 21/2/1 20/2/1
f 23/2/1 21/2/1 22/2/1
f 26/2/1 25/2/1 24/2/1
f 27/2/1 25/2/1 26/2/1
f 28/2/1 25/2/1 27/2/1
f 31/2/1 30/2/1 29/2/1
f 32/2/1 30/2/1 31/2/1
f 33/2/1 30/2/1 32/2/1
f 34/2/2 35/2/2 36/2/2
f 36/2/2 35/2/2 37/2/2
f 37/2/2 35/2/2 38/2/2
f 39/2/2 40/2/2 41/2/2
f 41/2/2 40/2/2 42/2/2
f 43/2/2 44/2/2 45/2/2
f 45/2/2 44/2/2 46/2/2
f 46/2/2 44/2/2 47/2/2
f 48/1/2 49/1/2 51/1/2
f 50/1/2 51/1/2 52/1/2
f 51/1/2 49/1/2 53/1/2
f 52/1/2 51/1/2 53/1/2
f 54/2/2 55/2/2 56/2/2
f 56/2/2 55/2/2 57/2/2
f 58/2/2 59/2/2 61/2/2
f 59/2/2 60/2/2 61/2/2
f 61/2/2 60/2/2 62/2/2
f 63/2/2 64/2/2 65/2/2
f 65/2/2 64/2/2 66/2/2
f 69/2/3 68/2/3 67/2/3
f 70/2/3 68/2/3 69/2/3
f 73/2/3 72/2/3 71/2/3
f 74/2/3 72/2/3 73/2/3
f 77/2/3 76/2/3 75/2/3
f 78/2/3 76/2/3 77/2/3
f 79/2/3 77/2/3 75/2/3
f 79/1/3 78/1/3 77/1/3
f 80/2/3 76/2/3 78/2/3
f 80/1/3 78/1/3 79/1/3
f 81/2/3 76/2/3 80/2/3
f 83/2/3 79/2/3 75/2/3
f 83/2/3 80/2/3 79/2/3
f 83/2/3 81/2/3 80/2/3
f 84/2/3 81/2/3 83/2/3
f 85/1/3 82/1/3 81/1/3
f 85/2/3 81/2/3 84/2/3
f 86/1/3 82/1/3 85/1/3
f 87/1/3 84/1/3 83/1/3
f 87/2/3 83/2/3 75/2/3
f 88/2/3 85/2/3 84/2/3
f 88/1/3 84/1/3 87/1/3
f 89/2/3 87/2/3 75/2/3
f 89/2/3 88/2/3 87/2/3
f 90/2/3 85/2/3 88/2/3
f 90/2/3 88/2/3 89/2/3
f 93/2/3 92/2/3 91/2/3
f 94/2/3 92/2/3 93/2/3
f 97/2/3 96/2/3 95/2/3
f 98/2/3 96/2/3 97/2/3
f 101/2/3 100/2/3 99/2/3
f 102/2/3 100/2/3 101/2/3
f 103/2/4 104/2/4 106/2/4
f 104/1/4 105/1/4 106/1/4
f 106/1/4 105/1/4 107/1/4
f 103/2/4 106/2/4 108/2/4
f 106/2/4 107/2/4 108/2/4
f 108/2/4 107/2/4 109/2/4
f 103/2/4 108/2/4 110/2/4
f 108/1/4 109/1/4 111/1/4
f 110/2/4 108/2/4 111/2/4
f 111/1/4 109/1/4 112/1/4
f 113/2/4 114/2/4 117/2/4
f 117/2/4 114/2/4 118/2/4
f 115/2/4 116/2/4 119/2/4
f 119/2/4 116/2/4 120/2/4
f 121/2/4 122/2/4 123/2/4
f 123/2/4 122/2/4 124/2/4
f 125/2/4 126/2/4 127/2/4
f 127/2/4 126/2/4 128/2/4
f 129/2/4 130/2/4 131/2/4
f 131/2/4 130/2/4 132/2/4
f 129/2/4 131/2/4 133/2/4
f 129/2/4 133/2/4 135/2/4
f 133/2/4 134/2/4 135/2/4
f 135/2/4 134/2/4 136/2/4
f 137/1/4 138/1/4 139/1/4
f 139/1/4 138/1/4 140/1/4
f 145/2/5 142/2/5 141/2/5
f 146/2/5 142/2/5 145/2/5
f 147/2/5 144/2/5 143/2/5
f 148/2/5 144/2/5 147/2/5
f 153/2/5 150/2/5 149/2/5
f 154/2/5 150/2/5 153/2/5
f 155/2/5 152/2/5 151/2/5
f 156/2/5 152/2/5 155/2/5
f 159/2/5 158/2/5 157/2/5
f 160/2/5 158/2/5 159/2/5
f 161/2/5 159/2/5 157/2/5
f 162/2/5 159/2/5 161/2/5
f 163/2/5 158/2/5 160/2/5
f 164/2/5 158/2/5 163/2/5
f 165/2/5 162/2/5 161/2/5
f 165/2/5 163/2/5 162/2/5
f 165/2/5 164/2/5 163/2/5
f 166/2/5 164/2/5 165/2/5
f 169/1/5 168/1/5 167/1/5
f 170/1/5 168/1/5 169/1/5
f 175/2/5 172/2/5 171/2/5
f 175/2/5 174/2/5 173/2/5
f 175/2/5 173/2/5 172/2/5
f 176/2/5 174/2/5 175/2/5
f 177/2/6 178/2/6 181/2/6
f 181/2/6 178/2/6 182/2/6
f 179/2/6 180/2/6 183/2/6
f 183/2/6 180/2/6 184/2/6
f 185/2/6 186/2/6 189/2/6
f 187/2/6 188/2/6 190/2/6
f 185/2/6 189/2/6 191/2/6
f 191/2/6 189/2/6 192/2/6
f 190/2/6 188/2/6 193/2/6
f 193/2/6 188/2/6 194/2/6
f 195/2/6 196/2/6 199/2/6
f 199/2/6 196/2/6 200/2/6
f 197/2/6 198/2/6 201/2/6
f 201/2/6 198/2/6 202/2/6
f 203/1/6 204/1/6 205/1/6
f 205/1/6 204/1/6 206/1/6
